<svg xmlns="http://www.w3.org/2000/svg" width="158" height="29" fill="none"><path fill="#61DAFB" d="M37.012 22h3.422v-5.737h2.497L45.998 22h3.777l-3.438-6.29c1.842-.79 2.861-2.395 2.861-4.608 0-3.216-2.126-5.286-5.8-5.286h-6.386V22Zm3.422-8.487v-4.9h2.308c1.975 0 2.932.877 2.932 2.49 0 1.604-.957 2.41-2.916 2.41h-2.324Zm15.343 8.724c3.002 0 5.026-1.462 5.5-3.714l-3.114-.206c-.34.925-1.209 1.407-2.331 1.407-1.683 0-2.75-1.114-2.75-2.924v-.008h8.266v-.924c0-4.126-2.497-6.164-5.706-6.164-3.572 0-5.887 2.536-5.887 6.282 0 3.849 2.284 6.251 6.022 6.251Zm-2.695-7.531c.07-1.383 1.122-2.49 2.615-2.49 1.462 0 2.474 1.044 2.482 2.49h-5.097Zm12.811 7.523c1.794 0 2.956-.782 3.549-1.912h.094V22h3.193v-8.187c0-2.892-2.45-4.11-5.152-4.11-2.909 0-4.82 1.392-5.287 3.604l3.113.253c.23-.806.949-1.399 2.158-1.399 1.146 0 1.802.577 1.802 1.573v.047c0 .783-.83.885-2.94 1.09-2.403.222-4.56 1.028-4.56 3.739 0 2.402 1.715 3.62 4.03 3.62Zm.965-2.323c-1.036 0-1.779-.482-1.779-1.407 0-.948.783-1.414 1.968-1.58.735-.103 1.936-.277 2.34-.546v1.288c0 1.273-1.052 2.245-2.53 2.245Zm12.855 2.331c3.232 0 5.263-1.896 5.42-4.686h-3.176c-.198 1.296-1.051 2.023-2.205 2.023-1.573 0-2.592-1.32-2.592-3.643 0-2.292 1.027-3.604 2.592-3.604 1.233 0 2.023.814 2.205 2.023h3.177c-.143-2.805-2.268-4.646-5.437-4.646-3.683 0-5.959 2.552-5.959 6.274 0 3.69 2.237 6.26 5.975 6.26Zm12.92-12.375h-2.284V6.954h-3.367v2.908h-1.66v2.528h1.66v6.323c-.015 2.378 1.605 3.556 4.046 3.453a6.553 6.553 0 0 0 1.826-.316l-.53-2.505c-.165.031-.521.11-.837.11-.672 0-1.138-.252-1.138-1.185v-5.88h2.284V9.862ZM94.037 22h3.422v-6.685h6.583v-2.822h-6.583V8.637h7.294V5.816H94.037V22Zm15.151.23c1.794 0 2.955-.783 3.548-1.913h.095V22h3.192v-8.187c0-2.892-2.449-4.11-5.152-4.11-2.908 0-4.821 1.392-5.287 3.604l3.114.253c.229-.806.948-1.399 2.157-1.399 1.146 0 1.802.577 1.802 1.573v.047c0 .783-.83.885-2.94 1.09-2.402.222-4.56 1.028-4.56 3.739 0 2.402 1.715 3.62 4.031 3.62Zm.964-2.324c-1.035 0-1.778-.482-1.778-1.407 0-.948.782-1.414 1.967-1.58.735-.103 1.937-.277 2.34-.546v1.288c0 1.273-1.051 2.245-2.529 2.245Zm12.855 2.331c3.232 0 5.263-1.896 5.421-4.686h-3.177c-.197 1.296-1.051 2.023-2.205 2.023-1.572 0-2.592-1.32-2.592-3.643 0-2.292 1.028-3.604 2.592-3.604 1.233 0 2.023.814 2.205 2.023h3.177c-.142-2.805-2.268-4.646-5.437-4.646-3.683 0-5.958 2.552-5.958 6.274 0 3.69 2.236 6.26 5.974 6.26Zm12.92-12.375h-2.284V6.954h-3.366v2.908h-1.66v2.528h1.66v6.323c-.016 2.378 1.604 3.556 4.046 3.453a6.545 6.545 0 0 0 1.825-.316l-.529-2.505c-.166.031-.522.11-.838.11-.671 0-1.138-.252-1.138-1.185v-5.88h2.284V9.862Zm11.006 3.461c-.3-2.236-2.102-3.62-5.168-3.62-3.106 0-5.153 1.439-5.145 3.778-.008 1.818 1.138 2.995 3.509 3.47l2.102.418c1.059.213 1.541.6 1.557 1.21-.016.718-.798 1.232-1.976 1.232-1.201 0-1.999-.514-2.205-1.502l-3.311.174c.316 2.324 2.292 3.754 5.508 3.754 3.145 0 5.398-1.604 5.406-3.999-.008-1.754-1.154-2.805-3.509-3.287l-2.197-.443c-1.13-.245-1.549-.632-1.541-1.217-.008-.727.814-1.2 1.857-1.2 1.17 0 1.865.64 2.031 1.422l3.082-.19Z"/><g clip-path="url(#a)"><path fill="#00D8FF" d="M14.465 17.024a2.583 2.583 0 1 0 0-5.167 2.583 2.583 0 0 0 0 5.167Z"/><path stroke="#00D8FF" stroke-width="1.236" d="M14.466 9.188c3.468 0 6.69.498 9.12 1.335 2.927 1.007 4.727 2.535 4.727 3.918 0 1.441-1.908 3.064-5.051 4.105-2.377.788-5.504 1.199-8.796 1.199-3.376 0-6.572-.386-8.976-1.207C2.45 17.498.618 15.855.618 14.44c0-1.372 1.719-2.888 4.605-3.894 2.438-.85 5.74-1.359 9.242-1.359Z" clip-rule="evenodd"/><path stroke="#00D8FF" stroke-width="1.236" d="M9.894 11.83c1.732-3.005 3.773-5.548 5.711-7.234 2.336-2.033 4.558-2.828 5.756-2.138 1.249.72 1.702 3.184 1.034 6.427-.505 2.452-1.712 5.366-3.357 8.218-1.686 2.925-3.617 5.501-5.529 7.172-2.42 2.115-4.758 2.88-5.983 2.174-1.188-.685-1.643-2.931-1.073-5.934.482-2.537 1.691-5.651 3.44-8.685Z" clip-rule="evenodd"/><path stroke="#00D8FF" stroke-width="1.236" d="M9.897 17.11c-1.738-3-2.92-6.039-3.415-8.56-.594-3.038-.174-5.361 1.023-6.054 1.248-.722 3.608.115 6.084 2.314 1.872 1.662 3.794 4.163 5.444 7.012 1.691 2.921 2.959 5.881 3.452 8.372.624 3.152.119 5.56-1.105 6.27-1.187.686-3.36-.041-5.676-2.035-1.958-1.684-4.052-4.287-5.807-7.318Z" clip-rule="evenodd"/></g><defs><clipPath id="a"><path fill="#fff" d="M0 0h28.93v28.93H0z"/></clipPath></defs></svg>